<?xml version="1.0" encoding="UTF-8" standalone="no"?>
<!DOCTYPE svg PUBLIC "-//W3C//DTD SVG 1.1//EN" "http://www.w3.org/Graphics/SVG/1.1/DTD/svg11.dtd">
<svg width="100%" height="100%" viewBox="0 0 72 72" version="1.1" xmlns="http://www.w3.org/2000/svg" xmlns:xlink="http://www.w3.org/1999/xlink" xml:space="preserve" xmlns:serif="http://www.serif.com/" style="fill-rule:evenodd;clip-rule:evenodd;">
    <g>
        <circle cx="36" cy="34" r="32" style="fill:rgb(51,54,62);"/>
        <path d="M35.999,40.401L43.701,40.401C45.008,40.4 46.066,39.341 46.068,38.034L46.068,26.3C46.066,24.994 45.008,23.935 43.701,23.933L28.3,23.933C26.994,23.935 25.935,24.994 25.933,26.3L25.933,38.034C25.935,39.341 26.994,40.4 28.3,40.401L29.767,40.401M35.999,40.401L30.071,40.762C30.003,40.661 29.889,40.601 29.767,40.601L29.767,40.401M35.999,40.401C35.915,40.402 35.832,40.421 35.756,40.457C35.756,40.457 35.756,40.458 35.756,40.458L29.364,43.501L30.293,41.179L30.108,41.104L30.293,41.179M35.999,40.401L30.293,41.179M29.767,40.401C29.955,40.401 30.131,40.494 30.237,40.65L30.237,40.65C30.342,40.806 30.363,41.004 30.293,41.179M29.767,40.401L30.293,41.179M43.701,22.8L28.3,22.8C26.368,22.802 24.802,24.368 24.8,26.3L24.8,38.034C24.802,39.967 26.368,41.532 28.3,41.534L28.93,41.534L27.774,44.424L27.773,44.425C27.688,44.642 27.744,44.888 27.913,45.047C28.083,45.206 28.334,45.245 28.544,45.145L28.544,45.145L36.13,41.534L43.701,41.534C45.633,41.532 47.199,39.967 47.201,38.034L47.201,26.3C47.199,24.368 45.633,22.802 43.701,22.8Z" style="fill:white;fill-rule:nonzero;stroke:white;stroke-width:0.4px;"/>
        <g transform="matrix(1,0,0,1,0.000456894,-1.51049)">
            <path d="M32.218,33.66L32.218,33.66L29.593,31.753L29.593,31.753C29.137,31.422 28.946,30.835 29.12,30.299C29.295,29.763 29.794,29.401 30.357,29.401L33.602,29.401C33.674,29.401 33.738,29.354 33.76,29.286L34.763,26.2L34.763,26.2C34.937,25.664 35.436,25.3 36,25.3C36.563,25.3 37.063,25.664 37.236,26.2L37.236,26.2L38.239,29.286L32.218,33.66ZM32.218,33.66C32.276,33.702 32.301,33.777 32.279,33.846L32.279,33.846M32.218,33.66L32.279,33.846M32.279,33.846L31.276,36.932L31.276,36.932C31.102,37.468 31.292,38.055 31.748,38.386M32.279,33.846L31.748,38.386M31.748,38.386C32.204,38.717 32.821,38.717 33.276,38.386L35.902,36.479L35.902,36.479M31.748,38.386L35.902,36.479M35.902,36.479C35.96,36.436 36.039,36.436 36.097,36.479L36.098,36.479M35.902,36.479L36.098,36.479M36.098,36.479L38.721,38.384C38.721,38.385 38.722,38.385 38.722,38.385C39.176,38.722 39.797,38.722 40.251,38.386C40.711,38.058 40.903,37.467 40.723,36.931C40.723,36.931 40.723,36.931 40.723,36.93L39.721,33.846C39.698,33.777 39.723,33.702 39.781,33.66L39.782,33.66M36.098,36.479L39.782,33.66M39.782,33.66L42.406,31.753L42.407,31.753C42.862,31.422 43.053,30.835 42.879,30.299C42.705,29.763 42.206,29.401 41.642,29.401L38.397,29.401M39.782,33.66L38.397,29.401M41.74,30.836L41.741,30.836C41.799,30.794 41.824,30.718 41.801,30.649C41.779,30.581 41.715,30.534 41.642,30.534L38.397,30.534L38.397,30.334L41.74,30.836ZM41.74,30.836L39.115,32.743L39.115,32.743C38.659,33.073 38.468,33.661 38.643,34.196L39.645,37.282L39.645,37.283C39.668,37.352 39.644,37.427 39.585,37.47C39.527,37.512 39.448,37.512 39.389,37.47L39.389,37.469L36.764,35.563C36.764,35.563 36.764,35.563 36.764,35.563C36.308,35.231 35.691,35.231 35.235,35.563C35.235,35.563 35.235,35.563 35.235,35.563L32.61,37.469L41.74,30.836ZM38.397,29.401C38.325,29.401 38.261,29.355 38.239,29.286L38.397,29.401ZM35.999,26.436C36.071,26.436 36.135,26.482 36.158,26.55L32.61,37.469C32.552,37.512 32.473,37.512 32.414,37.469C32.356,37.427 32.331,37.352 32.354,37.283L32.354,37.283L33.356,34.198C33.356,34.198 33.356,34.198 33.356,34.198C33.532,33.662 33.341,33.074 32.884,32.744C32.884,32.744 32.884,32.743 32.884,32.743L30.259,30.837L30.258,30.836C30.199,30.794 30.174,30.718 30.197,30.65C30.219,30.581 30.284,30.534 30.356,30.534L33.601,30.534L33.602,30.334L33.602,30.534L33.602,30.534C34.165,30.535 34.665,30.172 34.838,29.636C34.838,29.636 34.838,29.635 34.838,29.635L35.841,26.551C35.841,26.551 35.841,26.551 35.841,26.551C35.864,26.482 35.927,26.436 35.999,26.436Z" style="fill:white;fill-rule:nonzero;stroke:white;stroke-width:0.4px;"/>
        </g>
    </g>
    <circle cx="58" cy="12" r="8" style="fill:rgb(242,100,89);"/>
</svg>
